<?xml version="1.0" standalone="no"?>
<!DOCTYPE svg PUBLIC "-//W3C//DTD SVG 20010904//EN"
 "http://www.w3.org/TR/2001/REC-SVG-20010904/DTD/svg10.dtd">
<svg version="1.0" xmlns="http://www.w3.org/2000/svg"
 width="100.000000pt" height="100.000000pt" viewBox="0 0 100.000000 100.000000"
 preserveAspectRatio="xMidYMid meet">

<g transform="translate(0.000000,100.000000) scale(0.100000,-0.100000)"
fill="#000000" stroke="none">
<path d="M444 879 c-45 -13 -100 -78 -109 -127 -10 -63 9 -115 60 -160 l45
-40 0 -188 c0 -187 0 -188 26 -226 15 -21 30 -38 34 -38 4 0 19 17 34 38 26
38 26 39 26 226 l0 188 45 40 c77 67 84 160 19 237 -47 55 -107 71 -180 50z
m127 -47 c83 -47 82 -171 -2 -226 l-39 -26 0 -203 c-1 -162 -4 -206 -15 -221
-15 -20 -15 -20 -30 0 -11 15 -14 59 -15 222 l0 203 -35 20 c-78 46 -92 149
-28 213 45 45 105 52 164 18z"/>
</g>
</svg>
